<svg width="1440" height="900" viewBox="0 0 1440 900" fill="none" xmlns="http://www.w3.org/2000/svg">
<g clip-path="url(#clip0)">
<rect width="1440" height="900" fill="#FEFEFE"/>
<path d="M-244.547 561.153C-246.761 561.105 -248.975 561.068 -251.187 561.043C-594.544 557.063 -940.795 831.356 -1071 969H-244.547V561.153Z" fill="#E24980"/>
<path d="M-85.5212 969H606C486.131 856.135 204.944 647.736 -85.5212 581.661V969Z" fill="#E24980"/>
<path d="M-243.349 561.153C-245.159 561.105 -246.969 561.068 -248.777 561.043C-529.483 557.063 -812.553 831.356 -919 969H-243.349V561.153Z" fill="black" fill-opacity="0.1"/>
<path d="M-113.34 969H452C354.003 856.135 124.124 647.736 -113.34 581.661V969Z" fill="black" fill-opacity="0.1"/>
<path d="M1632.55 372.847C1634.76 372.895 1636.97 372.932 1639.19 372.957C1982.54 376.937 2328.79 102.644 2459 -35L1632.55 -34.9999L1632.55 372.847Z" fill="#73D2DE"/>
<path d="M1473.52 -34.9999L782 -34.9999C901.869 77.8652 1183.06 286.264 1473.52 352.339L1473.52 -34.9999Z" fill="#73D2DE"/>
<path d="M1631.35 372.847C1633.16 372.895 1634.97 372.932 1636.78 372.957C1917.48 376.937 2200.55 102.644 2307 -35L1631.35 -34.9999L1631.35 372.847Z" fill="black" fill-opacity="0.1"/>
<path d="M1501.34 -34.9999L936 -34.9999C1034 77.8651 1263.88 286.264 1501.34 352.339L1501.34 -34.9999Z" fill="black" fill-opacity="0.1"/>
</g>
<defs>
<clipPath id="clip0">
<rect width="1440" height="900" fill="white"/>
</clipPath>
</defs>
</svg>
