<svg width="349" height="441" viewBox="0 0 349 441" fill="none" xmlns="http://www.w3.org/2000/svg">
<path d="M145.686 306.26C142.776 304.447 140.38 302.5 137.474 300.127C135.341 298.386 133.401 296.423 131.686 294.27C127.348 289.129 123.544 283.676 121.623 277.117C120.76 275.133 120.175 273.039 119.887 270.894L119.973 271.022C117.5 260 117.709 247.555 119.736 235.835C120.002 234.292 120.461 233.5 120.806 231.104C120.966 229.992 121.5 229 122 227C122.749 224.005 122.783 222.5 124.295 219.16C125.5 216.5 126.792 214.536 127.806 212.108L128.685 210.212C129.827 208.623 130.565 206.805 131.57 205.138C133.824 200.822 136.546 196.768 139.686 193.046C140.991 191.5 143.994 190.368 140.668 187.968C133.626 185.563 127.494 181.557 121.604 177.126C120.353 176.07 119.577 175.843 118.22 174.927C117.943 174.774 117.834 174.625 116.788 173.908C115.742 173.191 116.865 173.961 115.627 173.22C112.72 170.427 108.996 166.32 108.22 165.427C107.921 165.083 107.473 164.806 107.22 164.427C106.22 162.927 106.382 163.189 105.72 162.427C104.932 161.519 105 161.074 103.686 159.228C100.539 154.809 98.2199 150.927 95.7287 145.133C92.2199 139.927 90.4173 120.935 90.4243 108.427C90.4444 108.184 90.4243 107.674 90.4243 107.674C90.4243 107.138 90.4243 106.801 90.4243 106.801V105.927C90.7199 103.927 90.7199 103.927 91.2199 101.927L91.7199 99.9267C92.2199 97.9267 92.7199 95.9267 93.727 93.1222C94.3358 91.4267 94.6514 89.832 95.6857 87.1294C96.7199 84.4267 97.6891 82.7567 98.7199 80.4267C102.404 72.512 107.106 64.7983 112.686 58.0837C113.907 56.3077 115.554 54.8828 116.784 53.1137C120.12 49.1715 123.765 45.5017 127.684 42.1392C129.396 40.6702 130.852 39.3966 132.519 38.125L133.695 37.0322C135.06 36.1742 136.35 35.2017 137.55 34.1253L152.22 24.4267C153.962 23.4241 156.239 22.0648 158.081 21.2596L167.67 16.2255C169.258 15.2212 171.153 14.9869 172.818 14.1734L174.686 13.1884C177.72 11.9267 177.72 11.9267 180.18 11.2725L188.669 8.22546C191.087 7.36521 193.572 6.70453 196.097 6.25006C196.975 6.09221 197.106 6.10017 197.72 5.92669C198.334 5.75321 198.682 5.39191 199.67 5.24066C201.72 4.92669 206.464 4.01737 209.825 3.22357L209.729 3.26947C212.22 2.92669 212.22 2.92669 214.959 2.21536C215.11 2.17617 215.179 2.17617 215.311 2.17617C215.422 2.17617 215.487 2.18979 215.559 2.17617C215.631 2.16256 215.901 2.17617 216.004 2.17617C216.094 2.17617 216.72 1.96588 216.72 1.96588C217.72 1.92669 221.22 0.926694 223.028 0.607663C223.72 0.485579 224.163 0.559221 225.22 0.426668C229.663 0.0592214 238.873 0.395464 245.913 0.667264C247.923 0.744867 247.72 0.667264 250.22 0.926668L253.72 1.42667C255.72 1.42667 257.213 1.80437 260.22 1.92667C265.385 2.85657 265.72 2.92667 269.72 3.92667L283.342 8.24386C285.136 8.84166 287.03 9.17955 288.627 10.2859L288.545 10.2365C293.061 11.2944 296.77 13.9497 300.614 16.337C303.132 18.1708 305.72 19.4267 308.494 21.3223C311.22 22.9267 313.109 24.2499 315.22 25.9267C317.748 29.1493 320.625 31.8184 323.667 34.5608C326.684 38.3482 329.405 42.3615 331.807 46.5654C332.123 47.1784 332.375 47.8226 332.558 48.4876C333.22 49.9267 333.72 50.9267 334.27 52.2775C335.22 54.613 335.913 55.7304 336.546 57.5387C337.15 59.7693 337.754 62 338.358 64.2306C339.494 68.4267 339.802 72.2822 340.55 76.3032L340.48 76.1889C340.72 78.4267 340.733 79.3431 340.72 80.4267C340.588 91.6639 338.121 103.507 335.5 111.927C335.136 112.917 335.078 114.298 334.569 115.222C332.5 120.427 330.5 123 327.397 127.034L318.604 139.912C317.5 141.5 315.909 143.363 314.428 144.979L314.502 144.897C312.873 147.804 315.773 149.212 316.621 151.3L334.466 178.201C335.5 180 335.924 180.893 336.643 182.244C337.5 183.857 337.145 183.986 338.322 186.243C339.5 188.5 339.81 189.686 340.59 191.392C340.769 192.366 340.59 192.045 341.43 194.225C342.5 197 342.657 198.321 343.596 200.251L343.554 200.169C344.917 204.115 345.919 208.177 346.548 212.304L346.486 212.2C347.5 219.5 350.137 237.106 348 249.51C347.965 249.725 347.663 250.329 347.5 251C346.955 253.239 346.099 254.473 345.554 256.712C344.5 259.5 344 260.5 342.473 263.052C340.837 265.303 339.202 267.555 337.567 269.806C335.918 276.303 337.479 282.802 337.553 289.301L337.481 289.187C338 293.5 338.087 296.966 338.572 300.861C340.276 314.553 341 327.5 338.477 342.058L338.541 341.943C338 346 338 346.5 336.404 350.011L336.483 349.894C335.5 352 335.5 352 334.238 354.994C332.5 358 332 359 330.562 361.787C329.5 363.5 329 364 327.412 366.031L326.637 366.994C324.5 369.5 323.5 370.5 322.194 371.981L317.539 376.609C315.5 378.5 314 380 311.537 382.069L309.554 383.712C308 385.5 307.5 386 305.553 387.076C303.5 389 301.5 390 299.577 391.828C296 394.5 294.5 396 291.509 398.059C288.517 400.118 286 402 283.61 403.924C279.5 407.233 276.5 409.405 272.465 412.042C271 413 270.5 413.5 269.622 413.954C266.5 416.5 265 417.5 262.368 419.01C261 419.794 261 419.767 259.574 420.791C256.5 423 255 424 251.576 426.077L235.567 434.743C233.5 436 232.127 436.214 230.447 437.039C229 437.749 229 437.91 227.672 438.243C220.084 440.145 212.5 442.172 204.766 438.891L204.886 438.964C202 438 201 437.5 198.79 435.914L198.873 435.986C197.278 435.464 196.321 434.091 195.052 433.132C190.5 430.5 188.5 429 185.433 425.974C184.278 424.346 183.027 422.79 181.685 421.312C175.932 415.474 172.889 408.042 169.911 400.651C169.359 399.281 169.235 398.345 167.686 398.255C164.5 399 164 399 161.527 400.056L152.71 402.982C150.365 403.835 147.957 404.506 145.508 404.989L145.616 404.926C143.329 406.068 140.796 406.359 138.37 407.017C137.105 407.271 136.5 407.5 134.589 407.84C130 409 129.26 409.419 126.543 410.014L126.639 409.972C124 410.5 123 410.5 121.543 411.023L121.642 410.977C112.432 413.354 102.735 413.06 93.6863 410.129C89.2679 409.068 85.1491 407.015 81.6423 404.125C80.3043 403.151 79.0809 402.026 77.6859 401.127L76.6119 400.125C74.5002 398 72.5002 396.5 70.6854 394.229C67.482 390.917 64.7543 387.176 62.5804 383.113C60.5002 380 59.4585 377.449 58.6854 374.27C58.255 372.5 57.6343 371.412 57.5003 370C56.7828 365.248 57.5 361.712 58.8085 356.116C59.2616 354.178 59.6989 352.5 61 350.5C62.3142 348.48 64 347 65.955 345.959C66.5265 345.655 67 345.5 67.7796 345.167L69.6925 344.068C71.3912 343.374 73.1316 342.786 74.9034 342.307L74.7858 342.384C77.2583 340.91 80.1358 340.932 82.8121 340.211L82.7243 340.251C85 340 85.5 339.5 87.8643 339.261L87.7496 339.324C91.0827 338.237 94.605 338.074 97.9869 337.225C102.5 336.091 106.594 334.793 110.701 332.988C113.206 332.309 114.5 331.5 117.938 330.219L119.673 329.211C125.288 326.849 130.568 323.794 136.101 321.262L143.5 316.5C144.75 315.741 147.002 313.334 147.803 312.11L148.686 311.097C150.131 307.97 147.803 307.58 145.686 306.26Z" fill="#202020"/>
<path d="M197.483 190.155C174.575 191.322 152.801 187.166 132.832 175.585C98.9624 155.941 87.4003 119.146 103.959 83.6347C116.667 56.3847 138.216 37.9375 164.373 24.3106C188.815 11.5925 216.149 5.46565 243.681 6.53433C268.446 7.31093 291.498 14.1065 310.773 30.7185C315.365 34.5699 319.313 39.1308 322.466 44.2285C325.094 52.5965 323.567 60.9852 322.631 69.3815C319.976 93.2171 311.359 114.78 297.581 134.28C292.975 141.019 287.461 147.092 281.198 152.327C261.842 167.946 239.362 179.233 215.274 185.426C209.344 186.999 203.32 188.231 197.483 190.155Z" fill="#FDA93A"/>
<path d="M177.415 375.123C181.156 367.872 188.103 366.27 195.226 365.446C199.362 364.916 203.551 364.96 207.675 365.577C220.726 367.742 231.907 363.845 242.093 355.997C249.858 350.014 257.673 344.096 265.449 338.126C267.134 336.832 269.527 335.453 267.625 332.991C265.857 330.703 263.641 332.215 261.926 333.497C254.472 339.065 246.842 344.436 239.739 350.427C229.609 358.972 218.143 361.615 205.329 359.697C198.72 358.765 191.984 359.371 185.647 361.467C177.703 363.981 172.492 369.524 169.536 377.25C165.638 382.212 159.597 383.593 154.288 386.015C145.663 389.95 136.323 391.691 127.021 393.271C123.258 393.91 119.191 394.338 117.701 389.268C115.243 383.682 113.41 377.853 110.77 372.302C106.964 364.3 99.583 361.398 92.3333 358.238C89.8677 357.164 88.9879 358.67 89.7308 361.099C90.3078 363.316 92.1817 364.213 93.9762 365.024C98.1532 366.913 99.8371 370.176 99.7363 374.601C99.6234 376.096 99.7435 377.6 100.093 379.059C100.203 379.636 100.482 380.168 100.894 380.587C101.306 381.006 101.833 381.294 102.408 381.415C103.789 381.667 104.578 380.831 105.079 379.673C105.839 377.92 106.51 376.032 108.979 377.765C112.476 381.641 112.73 386.928 114.923 391.376C115.936 393.372 115.757 394.849 113.231 395.336C110.952 395.68 108.643 395.779 106.342 395.631C99.2899 395.477 92.2658 395.593 85.3637 397.297C74.3166 389.468 66.0337 379.643 63.7762 365.88C62.4671 357.899 67.2161 351.173 75.7435 348.004C83.7235 345.038 92.283 344.567 100.447 342.36C116.454 338.031 131.182 330.894 145.214 322.203C149.376 319.625 152.563 316.029 155.499 312.183C157.957 310.723 159.554 312.564 161.273 313.745C173.905 322.422 187.92 323.324 202.438 320.908C208.11 319.963 212.199 316.242 216.128 312.248C220.944 307.352 221.247 307.66 227.355 310.882C232.87 313.792 238.971 314.374 245.18 315.025C258.86 316.459 267.509 309.593 274.427 299.099L278.505 293.172C280.245 290.313 283.104 290.604 285.641 291.101C291.392 292.229 297.249 291.468 303.002 292.45C306.275 293.008 309.151 291.361 311.957 289.911C316.099 287.771 319.802 284.927 323.71 282.413C329.317 278.806 329.611 278.925 330.254 285.15C330.715 290.786 331.175 296.422 331.636 302.059C332.169 303.887 332.428 305.921 331.016 307.256C327.522 310.562 327.268 314.899 326.738 319.166C324.548 336.821 317.838 352.452 306.033 365.839C304.08 368.119 301.795 370.091 299.255 371.691C286.529 379.454 276.238 390.239 264.675 399.442C255.261 406.843 245.112 413.258 234.389 418.586C226.419 422.614 217.771 422.238 209.436 420.998C202.513 419.968 195.869 417.064 188.637 418.173C181.656 411.157 176.994 402.169 175.283 392.421C174.793 388.465 174.399 384.551 176.787 380.936C177.955 379.171 176.984 377.042 177.415 375.123Z" fill="#FDA93A"/>
<path d="M310.225 153.256C314.762 160.397 320.444 166.713 324.803 174.007C337.699 195.586 343.506 218.854 341.286 243.875C340.232 255.758 334.44 265.225 323.766 271.205C311.003 278.356 296.986 280.436 282.651 281.083C281.865 280.956 281.109 280.685 280.42 280.285C280.034 279.849 279.534 279.529 278.976 279.36C278.419 279.19 277.825 279.179 277.262 279.326C272.104 281.149 267.281 279.004 262.338 278.272C253.068 275.1 246.81 269.045 245.989 259.033C245.224 249.705 249.693 242.342 256.952 236.778C265.198 230.458 274.875 227.708 284.997 226.264C287.134 225.959 289.263 225.572 291.41 225.375C293.602 225.174 294.975 224.202 294.616 221.909C294.255 219.605 292.262 219.118 290.412 219.35C284.338 220.111 278.094 220.419 272.38 222.663C267.932 224.411 266.581 223.253 264.979 218.913C260.616 207.097 254.404 197.227 234.498 198.083C235.477 194.866 238.571 195.067 240.919 194.359C250.787 191.381 261.019 189.613 270.414 185.081C284.095 178.481 296.413 170.232 305.172 157.442C306.417 155.624 307.245 153.075 310.225 153.256Z" fill="#FDA93A"/>
<path d="M218.427 202.034C212.462 203.65 207.234 206.802 202.235 210.246C192.949 216.642 190.217 225.643 194.061 236.962C195.532 241.294 197.543 245.444 199.48 250.09C193.56 250.129 187.96 248.877 182.349 250.009C180.224 250.437 178.175 250.612 178.407 253.348C178.632 256 180.773 256.331 182.862 256.177C190.874 255.589 198.853 255.634 206.513 258.348C213.761 260.916 220.279 264.645 222.401 272.786C224.867 282.246 220.315 289.549 213.61 295.147C197.985 308.193 179.972 309.474 160.96 304.445C159.22 303.985 158.628 303.012 158.019 301.57C157.387 300.074 155.976 298.913 154.447 299.99C152.025 301.697 150.446 300.128 148.711 299.036C133.138 289.235 125.298 274.861 124.601 256.727C123.671 232.523 132.311 211.606 147.59 193.177C149.877 191.632 151.747 193.063 153.543 194.152C169.199 203.647 186.206 203.913 203.569 201.416C207.521 200.847 211.497 200.773 215.445 200.276C216.681 200.121 218.214 200.136 218.427 202.034Z" fill="#FDA93A"/>
<path d="M197.483 190.155C202.345 185.815 208.812 185.913 214.57 184.327C241.057 177.029 265.53 165.761 285.346 146.503C300.186 132.081 309.584 114.126 315.871 94.2024C321.059 77.761 322.614 61.1931 322.466 44.2278C334.322 60.7769 336.517 79.1021 331.808 98.3999C325.944 122.426 311.337 140.735 292.409 155.798C266.106 176.729 235.927 187.877 202.456 190.248C200.809 190.365 199.141 190.192 197.483 190.155Z" fill="#E38D1A"/>
<path d="M188.64 418.173C193.33 414.941 198.216 416.671 202.85 418.005C215.297 421.587 226.888 421.222 238.801 414.858C255.552 405.909 269.609 393.701 283.776 381.451C287.472 378.379 291.346 375.527 295.378 372.912C312.137 361.583 320.051 344.815 324.4 325.874C325.239 322.002 325.857 318.085 326.253 314.143C326.601 311.043 327.183 308.309 330.243 306.629C331.981 305.675 331.193 303.6 331.637 302.058C333.234 316.275 334.537 330.503 330.823 344.599C327.62 356.759 319.451 365.592 310.322 373.471C289.159 391.757 266.538 408.284 242.684 422.887C234.854 427.676 226.566 431.632 217.27 432.682C209.376 433.573 202.306 432.137 197.8 424.672C197.004 423.355 196.217 421.979 194.458 422.083C191.467 422.262 190.03 420.289 188.64 418.173Z" fill="#E38D1A"/>
<path d="M204.506 245.222C202.004 241.53 200.191 237.415 199.158 233.076C197.175 225.844 199.048 219.842 205.151 215.573C214.34 209.273 224.978 205.409 236.069 204.345C246.467 203.184 253.572 207.885 257.82 217.241C258.98 219.795 260.295 222.3 260.573 225.162C260.788 227.213 259.084 227.146 257.925 227.323C249.42 228.623 243.359 234.302 237.089 239.32C233.377 242.29 232.212 247.106 231.813 251.867C231.703 253.189 231.793 254.524 231.63 255.843C231.424 257.516 231.183 259.454 229.476 260.048C227.383 260.777 226.829 258.527 225.915 257.319C222.109 252.191 216.442 248.762 210.133 247.769C208.058 247.401 205.718 247.533 204.506 245.222Z" fill="#FDA93A"/>
<path d="M218.427 202.034C213.918 201.269 209.296 201.517 204.895 202.76C194.082 205.523 183.471 203.632 172.759 202.83C164.689 202.226 157.843 198.681 151.274 194.394C150.216 193.589 148.919 193.161 147.59 193.178C148.684 190.308 150.449 189.898 153.468 190.645C211.184 204.911 261.668 190.734 305.765 151.661C307.075 150.5 307.946 148.685 310.053 148.437C311.088 150.06 310.072 151.685 310.225 153.257C307.465 155.073 306.41 158.216 304.467 160.668C292.284 176.044 276.187 185.41 257.731 191.165C250.017 193.57 241.859 194.486 234.498 198.083L218.427 202.034Z" fill="#E38D1A"/>
<path d="M274.428 299.1C271.64 308.333 261.299 316.13 251.926 316.239C244.271 316.328 236.632 316.517 229.41 313.327C228.351 312.859 226.863 312.777 226.246 311.989C222.412 307.099 219.571 310.256 217.064 313.191C210.481 320.896 202.085 323.222 192.226 323.392C182.927 323.497 173.708 321.674 165.149 318.037C161.572 316.576 159.707 312.472 155.5 312.184C156.125 307.948 158.951 310.107 160.804 310.584C174.199 314.222 188.383 313.717 201.485 309.134C208.499 306.589 214.864 302.528 220.127 297.24C224.352 307.523 231.532 313.147 242.522 312.647C253.485 312.149 263.178 308.094 271.722 301.248C272.621 300.528 273.526 299.816 274.428 299.1Z" fill="#E38D1A"/>
<path d="M204.506 245.222C206.417 246.551 208.695 246 210.778 246.446C218.622 248.124 224.828 252.099 228.794 259.513C230.869 257.823 230.41 255.629 230.441 253.626C230.568 245.441 233.572 238.931 240.809 234.525C247.086 230.704 252.8 225.792 260.572 225.161C262.195 226.864 260.518 227.504 259.482 228.05C252.708 231.615 247.57 236.888 243.375 243.182C238.32 250.839 237.928 258.869 241.455 267.211C246.902 278.599 256.753 283.736 268.46 286.238C268.539 286.341 268.596 286.46 268.627 286.587C268.658 286.713 268.663 286.845 268.64 286.973C268.618 287.102 268.57 287.224 268.498 287.333C268.427 287.442 268.333 287.535 268.224 287.606C254.632 288.956 243.247 284.586 233.478 273.311C235.107 283.31 231.368 290.871 227.366 298.358C224.761 294.995 224.237 291.93 226.333 287.621C232.767 274.39 227.387 261.087 212.963 254.733C208.285 252.673 204.915 250.558 204.506 245.222Z" fill="#E38D1A"/>
<path d="M227.366 298.358C228.695 289.545 235.336 281.817 232.534 271.606C242.213 282.971 254.559 286.939 268.476 287.148C271.996 286.311 271.35 288.768 270.97 290.568C270.273 293.877 267.957 296.221 265.641 298.51C259.304 303.423 251.947 305.894 244.156 306.96C236.386 308.022 230.725 304.91 227.366 298.358Z" fill="#FDA93A"/>
<path d="M85.3652 397.297C88.2656 395.058 91.8825 393.951 95.5396 394.185C101.001 394.327 106.483 393.985 111.929 394.306C115.423 394.511 114.089 392.952 113.461 391.396C115.379 390.648 117.346 389.978 118.649 388.225C119.452 393.281 123.358 392.593 126.592 392.078C141.682 389.759 156.23 384.736 169.537 377.251C169.079 380.372 168.789 383.515 168.67 386.668C168.69 389.109 167.829 390.288 165.586 390.978C148.103 396.356 130.896 402.874 112.503 404.612C102.643 405.544 93.2921 403.883 85.3652 397.297Z" fill="#E38D1A"/>
<path d="M330.255 285.151C328.978 284.028 329.815 282.28 328.971 280.605C324.599 283.486 320.127 285.975 316.183 289.125C307.328 296.195 297.343 293.156 287.683 292.674C284.552 292.517 281.502 291.647 278.505 293.174C278.919 288.307 281.527 287.028 286.365 286.776C301.305 285.997 315.832 283.087 328.999 275.057C330.273 278.259 330.706 281.734 330.255 285.151Z" fill="#E28D1A"/>
<path d="M241.455 267.212C236.22 261.68 237.259 248.681 243.375 243.182C239.888 250.706 239.207 259.229 241.455 267.212Z" fill="#DD9432"/>
<path d="M265.641 298.51C267.049 295.791 268.472 293.081 269.859 290.352C270.667 288.762 270.626 287.487 268.476 287.148C268.468 286.844 268.463 286.541 268.46 286.237C270.369 286.329 272.99 285.428 273.912 287.272C274.911 289.269 272.883 291.202 271.702 292.915C270.117 295.215 268.384 297.431 265.641 298.51Z" fill="#D1841D"/>
<path d="M177.415 375.123C179.491 378.061 179.572 380.753 176.796 383.428C174.154 385.972 176.096 389.466 175.285 392.421C173.854 386.392 173.482 380.492 177.415 375.123Z" fill="#DC8C22"/>
<path d="M262.338 278.271C267.191 277.647 272.006 280.26 276.933 278.3C278.338 277.741 279.842 278.584 280.421 280.285C274.23 281.073 268.08 281.506 262.338 278.271Z" fill="#D08521"/>
<path d="M191.657 379.019C193.484 374.168 197.612 375.502 200.511 376.623C208.115 379.563 215.765 383.152 221.362 389.05C228.306 396.367 229.279 406.1 227.835 415.71C227.235 419.704 224.455 419.117 222.357 416.125C221.631 410.386 221.125 404.625 219.363 399.045C218.605 396.119 216.756 393.593 214.195 391.985C208.493 388.58 202.993 384.761 196.519 382.852C194.367 382.217 192.452 381.344 191.657 379.019Z" fill="#222120"/>
<path d="M191.657 379.019C192.602 379.901 193.245 381.189 194.774 381.279C199.975 381.585 203.87 384.985 208.39 386.912C219.783 391.768 223.025 400.817 222.467 412.158C222.402 413.479 222.393 414.804 222.358 416.126C222.008 415.411 221.727 414.665 221.518 413.897C221.43 412.922 221.419 411.941 221.485 410.965C219.345 411.18 217.53 413.06 215.416 411.576C213.32 410.105 213.311 407.815 212.912 405.807C212.25 402.221 211.149 398.73 209.634 395.413C207.419 390.695 204.01 387.453 198.928 386.58C194.408 385.803 192.613 382.945 191.657 379.019Z" fill="#E28D1B"/>
<path d="M118.648 388.225C118.575 391.994 117.238 393.694 113.46 391.395L108.323 378.147C104.644 371.362 98.8326 366.994 92.0136 363.772C90.6519 363.181 89.456 362.264 88.5307 361.103C87.6328 359.628 86.7621 358.066 88.554 356.708C90.0701 355.558 91.634 356.25 93.2458 356.859C104.677 361.176 112.642 368.667 115.799 380.803C116.604 383.331 117.555 385.808 118.648 388.225Z" fill="#232220"/>
<path d="M88.5308 361.103C96.6697 364.995 105.813 367.721 108.323 378.148C106.554 377.412 106.438 378.477 106.452 379.806C106.477 382.364 105.015 383.314 102.638 383.18C101.634 383.199 100.659 382.841 99.9071 382.175C99.155 381.51 98.6802 380.586 98.5766 379.587C98.367 378.281 98.3358 376.953 98.4837 375.639C98.9911 370.757 97.3286 367.336 92.4536 365.637C90.4265 364.93 88.5328 363.739 88.5308 361.103Z" fill="#E28D1C"/>
<path d="M81.4131 54.2316C81.4131 54.2316 71.1876 56.7975 68.8666 65.9101C66.9175 73.5629 74.8615 79.9544 74.8615 79.9544" stroke="black" stroke-width="5" stroke-miterlimit="10" stroke-linecap="round"/>
<path d="M76.519 41.3399C76.519 41.3399 57.0032 46.2371 52.5735 63.6289C48.8534 78.2348 64.0151 90.4333 64.0151 90.4333" stroke="black" stroke-width="5" stroke-miterlimit="10" stroke-linecap="round"/>
<path d="M67.6187 29.8821C67.6187 29.8821 41.211 37.0729 34.9638 61.6008C29.7174 82.1997 49.9841 99.1192 49.9841 99.1192" stroke="black" stroke-width="5" stroke-miterlimit="10" stroke-linecap="round"/>
<path d="M129.867 98.8615C129.867 98.8615 139.008 106.736 149.13 102.909C157.631 99.6943 158.439 88.0578 158.439 88.0578M182.859 78.8238C182.859 78.8238 192.001 86.6982 202.123 82.8709C210.624 79.6566 211.431 68.0201 211.431 68.0201M143.024 151.739C143.024 151.739 157.559 163.227 174.293 156.9C188.347 151.586 190.26 133.878 190.26 133.878C190.26 133.878 204.795 145.366 221.529 139.039C235.583 133.725 237.496 116.017 237.496 116.017" stroke="black" stroke-width="8" stroke-miterlimit="10" stroke-linecap="round"/>
</svg>
