<svg width="161" height="82" viewBox="0 0 161 82" fill="none" xmlns="http://www.w3.org/2000/svg">
<path d="M117.031 49.4041C117.031 49.4041 119.97 42.3075 115.647 36.993C112.016 32.5297 104.827 34.4021 104.827 34.4021" stroke="#FFBC42" stroke-width="7" stroke-miterlimit="10" stroke-linecap="round"/>
<path d="M126.699 52.1383C126.699 52.1383 132.308 38.5943 124.056 28.4511C117.127 19.9328 103.407 23.5063 103.407 23.5063" stroke="#FFBC42" stroke-width="7" stroke-miterlimit="10" stroke-linecap="round"/>
<path d="M137.267 51.9062C137.267 51.9062 144.526 33.3343 132.889 19.0293C123.115 7.01577 104.417 11.5262 104.417 11.5262" stroke="#FFBC42" stroke-width="7" stroke-miterlimit="10" stroke-linecap="round"/>
<path d="M19.1719 33.6719C20.3906 33.6719 21.625 33.7344 22.875 33.8594C24.125 33.9688 25.4141 34.1328 26.7422 34.3516C28.0703 34.5703 29.2969 34.8203 30.4219 35.1016C31.5469 35.3828 32.5781 35.7031 33.5156 36.0625L29.5781 47.3359C28.3438 45.6797 26.9688 44.3984 25.4531 43.4922C23.9375 42.5703 22.3516 42.1094 20.6953 42.1094C19.7109 42.1094 19 42.3125 18.5625 42.7188C18.125 43.1094 17.9062 43.6016 17.9062 44.1953C17.9062 44.7578 18.3281 45.2969 19.1719 45.8125C20.0312 46.3281 21.3516 46.9219 23.1328 47.5938C27.7734 49.2969 30.7734 50.9922 32.1328 52.6797C33.4609 54.3359 34.125 56.3828 34.125 58.8203C34.125 62.6172 32.6797 65.5312 29.7891 67.5625C26.9141 69.5781 22.625 70.5859 16.9219 70.5859C13.9531 70.5859 11.1328 70.3828 8.46094 69.9766C5.78906 69.5703 3.16406 68.875 0.585938 67.8906L4.45312 55.9375C5.54688 57.6562 6.92969 59.0391 8.60156 60.0859C10.2578 61.1328 11.8594 61.6562 13.4062 61.6562C14.1719 61.6562 14.8047 61.4688 15.3047 61.0938C15.8203 60.7031 16.0781 60.2188 16.0781 59.6406C16.0781 58.9531 15.7188 58.3594 15 57.8594C14.2969 57.3438 13.1953 56.7969 11.6953 56.2188C8.00781 54.8281 5.47656 53.3203 4.10156 51.6953C2.74219 50.0547 2.0625 48.0469 2.0625 45.6719C2.0625 41.6875 3.5 38.6953 6.375 36.6953C9.25 34.6797 13.5156 33.6719 19.1719 33.6719ZM73.5703 34.2344V50.7812C73.5703 52.8906 73.3984 54.8203 73.0547 56.5703C72.7109 58.3203 72.1875 59.9062 71.4844 61.3281C70.7969 62.7344 69.9219 64 68.8594 65.125C67.8125 66.2344 66.5703 67.2109 65.1328 68.0547C62.2734 69.7422 59.1484 70.5859 55.7578 70.5859C52.5859 70.5859 49.5625 69.8047 46.6875 68.2422C43.8281 66.6797 41.6562 64.5234 40.1719 61.7734C38.7188 59.0391 37.9922 55.1562 37.9922 50.125V34.2344H53.8359V51.0859C53.8359 52.5234 53.9688 53.5234 54.2344 54.0859C54.5156 54.6172 55.0078 54.8828 55.7109 54.8828C56.1328 54.8828 56.4688 54.7891 56.7188 54.6016C56.9844 54.4141 57.1875 54.1172 57.3281 53.7109C57.4844 53.3047 57.5859 52.7812 57.6328 52.1406C57.6953 51.5 57.7266 50.7266 57.7266 49.8203V34.2344H73.5703ZM103.664 34.2344C106.211 34.2344 108.477 34.7188 110.461 35.6875C112.445 36.6406 113.938 37.9453 114.938 39.6016C115.938 41.2266 116.438 43.0078 116.438 44.9453C116.438 46.6016 116.086 48.1016 115.383 49.4453C114.695 50.7891 113.688 51.9297 112.359 52.8672C114.312 55.0703 115.859 57.6094 117 60.4844C118.156 63.3438 118.914 66.5156 119.273 70H102.844C102.516 65.2812 101.82 61.8984 100.758 59.8516C99.6953 57.7891 98.1016 56.7578 95.9766 56.7578H95.8828V70H80.0625V34.2344H103.664ZM95.8828 48.4844H96.2578C97.7734 48.4844 98.875 48.2188 99.5625 47.6875C100.25 47.1562 100.594 46.3047 100.594 45.1328C100.594 44.0547 100.273 43.1953 99.6328 42.5547C98.9922 41.9141 98.0547 41.5938 96.8203 41.5938H95.8828V48.4844ZM135.797 34.2344L139.781 46.0938H139.875L143.859 34.2344H159.656L147.516 70H132.164L120 34.2344H135.797Z" fill="black"/>
<rect x="92" y="39" width="9" height="11" fill="black"/>
<path d="M90 43C90 43 91.1975 45.2171 93.4451 45.2171C95.3327 45.2171 96.3445 43 96.3445 43" stroke="white" stroke-width="2" stroke-miterlimit="10" stroke-linecap="round"/>
<path d="M102 43C102 43 103.198 45.2171 105.445 45.2171C107.333 45.2171 108.345 43 108.345 43" stroke="white" stroke-width="2" stroke-miterlimit="10" stroke-linecap="round"/>
</svg>
